<svg id="分组icon" xmlns="http://www.w3.org/2000/svg" viewBox="0 0 17 17"><defs><style>.cls-1{fill:#999;}</style></defs><title>未标题-2</title><g id="圆角矩形_743_拷贝_2" data-name="圆角矩形 743 拷贝 2"><path class="cls-1" d="M6,2V6H2V2H6M6,0H2A2,2,0,0,0,0,2V6A2,2,0,0,0,2,8H6A2,2,0,0,0,8,6V2A2,2,0,0,0,6,0Z"/></g><g id="圆角矩形_743_拷贝_3" data-name="圆角矩形 743 拷贝 3"><path class="cls-1" d="M6,11v4H2V11H6M6,9H2a2,2,0,0,0-2,2v4a2,2,0,0,0,2,2H6a2,2,0,0,0,2-2V11A2,2,0,0,0,6,9Z"/></g><g id="圆角矩形_743_拷贝_4" data-name="圆角矩形 743 拷贝 4"><path class="cls-1" d="M15,2V6H11V2h4m0-2H11A2,2,0,0,0,9,2V6a2,2,0,0,0,2,2h4a2,2,0,0,0,2-2V2a2,2,0,0,0-2-2Z"/></g><g id="圆角矩形_743_拷贝_4-2" data-name="圆角矩形 743 拷贝 4-2"><path class="cls-1" d="M15,11v4H11V11h4m0-2H11a2,2,0,0,0-2,2v4a2,2,0,0,0,2,2h4a2,2,0,0,0,2-2V11a2,2,0,0,0-2-2Z"/></g></svg>